<?xml version="1.0" standalone="no"?>
<!DOCTYPE svg PUBLIC "-//W3C//DTD SVG 20010904//EN"
 "http://www.w3.org/TR/2001/REC-SVG-20010904/DTD/svg10.dtd">
<svg version="1.0" xmlns="http://www.w3.org/2000/svg"
 width="1280.000000pt" height="1280.000000pt" viewBox="0 0 1280.000000 1280.000000"
 preserveAspectRatio="xMidYMid meet">

<g transform="translate(0.000000,1280.000000) scale(0.100000,-0.100000)"
fill="#000000" stroke="none">
<path d="M1595 8808 c-3 -7 -4 -600 -3 -1318 l3 -1305 4880 0 4880 0 0 1315 0
1315 -4878 3 c-3897 2 -4879 0 -4882 -10z m875 -558 c20 -20 20 -33 20 -633 0
-685 1 -695 63 -739 31 -23 38 -23 355 -28 l324 -5 19 -24 c16 -20 19 -40 19
-151 0 -143 -10 -187 -46 -196 -13 -3 -180 -4 -371 -2 -316 4 -355 7 -426 26
-193 53 -307 162 -361 345 -20 69 -21 97 -24 729 -3 650 -3 657 18 678 19 19
32 20 205 20 172 0 186 -1 205 -20z m2550 7 c25 -13 25 -13 28 -171 2 -137 0
-161 -14 -177 -16 -18 -38 -19 -337 -19 -348 0 -382 -4 -422 -52 -33 -40 -45
-88 -45 -190 l0 -87 339 -3 c317 -3 340 -4 360 -22 20 -18 21 -29 21 -168 0
-135 -2 -150 -20 -168 -19 -19 -33 -20 -361 -20 l-341 0 3 -107 c3 -85 8 -115
24 -142 49 -83 92 -91 487 -91 284 0 298 -1 308 -19 5 -11 10 -84 10 -165 0
-133 -2 -148 -20 -166 -19 -19 -33 -20 -330 -20 -341 0 -467 10 -577 45 -176
56 -292 184 -334 370 -11 46 -14 163 -14 490 0 381 2 437 18 495 65 237 233
367 506 389 167 14 682 13 711 -2z m950 -5 c16 -13 37 -76 91 -272 39 -140 97
-352 129 -470 33 -118 83 -302 112 -407 29 -106 55 -193 58 -193 5 0 109 369
315 1125 41 150 60 205 77 218 20 16 40 18 209 15 202 -3 212 -6 212 -55 0
-23 -164 -605 -233 -828 -10 -33 -46 -157 -80 -275 -119 -415 -143 -475 -234
-566 -78 -77 -133 -98 -261 -98 -133 -1 -194 22 -270 98 -93 94 -110 136 -249
616 -46 162 -110 381 -140 485 -30 105 -80 274 -110 377 -30 103 -52 196 -49
207 9 33 43 40 224 40 155 1 180 -1 199 -17z m2946 -6 c20 -28 20 -304 0 -332
-14 -18 -32 -19 -358 -24 l-345 -5 -36 -25 c-20 -14 -43 -41 -51 -61 -12 -29
-21 -150 -17 -226 1 -10 74 -13 329 -13 243 0 333 -4 352 -13 25 -13 25 -13
28 -171 2 -137 0 -161 -14 -177 -16 -18 -38 -19 -356 -19 l-338 0 0 -102 c1
-135 19 -179 87 -211 46 -21 63 -22 377 -25 217 -2 334 -7 343 -14 10 -8 13
-51 13 -169 0 -152 -1 -158 -22 -173 -19 -14 -69 -16 -338 -16 -173 0 -355 5
-405 11 -224 27 -368 115 -446 274 -54 111 -59 159 -59 615 0 458 5 504 61
618 63 129 192 221 359 256 105 22 126 23 493 22 313 -1 329 -2 343 -20z
m1023 7 c21 -18 21 -19 24 -648 l2 -630 22 -46 c40 -81 49 -83 413 -87 276 -3
317 -5 328 -20 8 -11 12 -61 12 -164 0 -137 -2 -150 -21 -169 -21 -21 -26 -21
-377 -17 -327 4 -364 7 -437 27 -109 29 -180 67 -240 126 -63 63 -100 132
-125 230 -19 73 -20 115 -20 729 l-1 651 22 18 c18 15 45 17 199 17 155 0 181
-2 199 -17z"/>
<path d="M7437 5959 c-182 -20 -395 -96 -534 -190 -186 -126 -347 -312 -447
-517 -121 -247 -146 -550 -71 -848 81 -321 336 -623 665 -789 268 -135 659
-152 955 -40 366 137 669 474 764 848 36 140 46 274 32 418 -16 169 -49 288
-115 424 -120 245 -316 442 -571 576 -189 98 -447 144 -678 118z m368 -309
c251 -66 473 -238 600 -464 76 -136 110 -282 109 -471 0 -158 -23 -257 -89
-390 -146 -294 -399 -479 -714 -525 -109 -16 -285 -8 -383 18 -276 74 -535
306 -633 567 -48 127 -60 200 -59 360 1 176 19 258 86 395 146 294 407 483
733 530 91 13 259 3 350 -20z"/>
<path d="M7880 5334 c-41 -8 -185 -32 -319 -54 -135 -22 -248 -43 -252 -47
-10 -12 -18 -218 -19 -474 l0 -226 -60 -6 c-74 -8 -106 -24 -153 -76 -112
-124 -41 -323 121 -339 66 -6 116 12 168 60 68 62 71 85 78 457 3 178 7 325 8
327 2 1 71 14 153 28 83 15 169 31 192 36 23 6 53 10 67 10 l26 0 0 -159 c0
-87 -3 -186 -6 -220 l-7 -61 -45 0 c-188 0 -288 -251 -147 -368 103 -84 258
-51 325 68 l25 45 7 495 c5 272 6 501 3 508 -6 16 -68 14 -165 -4z"/>
<path d="M4695 5920 c-305 -61 -592 -246 -770 -495 -96 -134 -176 -326 -206
-495 -19 -109 -17 -356 4 -458 36 -168 118 -353 213 -480 56 -75 182 -199 265
-262 130 -97 344 -194 491 -220 88 -16 90 -13 100 162 9 156 17 185 62 236
l30 34 -40 37 c-23 20 -87 72 -143 116 -199 154 -218 202 -202 490 20 333 30
549 37 745 3 107 9 213 13 235 6 39 7 40 53 43 29 2 59 -3 78 -13 58 -30 60
-45 60 -463 0 -281 3 -381 12 -390 7 -7 24 -12 40 -12 51 0 52 11 44 421 -6
333 -5 381 8 408 44 83 151 66 176 -28 7 -28 31 -628 30 -763 0 -24 4 -28 29
-28 54 0 54 -4 42 411 -12 425 -12 422 53 453 39 18 111 21 122 5 3 -6 10 -61
15 -122 4 -62 15 -200 24 -307 47 -584 54 -791 30 -861 -28 -80 -62 -116 -271
-290 -139 -115 -210 -182 -219 -203 -7 -17 -15 -92 -18 -167 -3 -75 -7 -142
-9 -150 -2 -11 16 -14 92 -14 l95 0 -3 115 c-2 63 -7 142 -11 175 -7 53 -6 61
13 76 11 9 24 15 28 13 15 -9 26 -82 33 -207 5 -92 11 -132 22 -142 19 -19 71
-12 181 27 220 77 359 165 514 327 224 234 328 503 328 849 0 270 -77 503
-240 723 -175 236 -481 422 -776 474 -117 20 -315 18 -429 -5z"/>
<path d="M9140 5776 c-3 -2 -4 -488 -2 -1080 l2 -1076 540 0 c309 0 582 4 638
10 484 53 824 341 932 790 32 131 39 341 16 476 -78 460 -370 758 -846 861
-64 14 -166 17 -675 20 -330 2 -603 2 -605 -1z m1200 -339 c293 -57 486 -239
561 -527 28 -108 30 -310 5 -410 -43 -168 -116 -294 -223 -382 -125 -103 -261
-153 -463 -168 -139 -10 -709 -13 -734 -4 -14 6 -16 81 -16 753 0 411 3 751 7
755 14 14 781 -1 863 -17z"/>
<path d="M1775 5728 c-3 -7 -4 -472 -3 -1033 l3 -1020 160 0 160 0 3 428 2
427 555 0 555 0 0 155 0 155 -552 2 -553 3 -3 293 -2 292 619 0 620 0 3 145
c2 80 2 150 0 155 -6 16 -1561 13 -1567 -2z"/>
<path d="M4904 5539 c-3 -6 -3 -188 1 -404 5 -283 4 -399 -4 -414 -24 -44
-113 -68 -167 -45 -63 26 -64 32 -64 446 0 205 -3 383 -6 396 -4 14 -14 22
-29 22 -22 0 -23 -5 -29 -97 -3 -54 -8 -150 -10 -213 -3 -63 -13 -276 -23
-473 -19 -385 -17 -414 30 -486 23 -34 323 -281 341 -281 6 0 45 31 87 68 42
37 106 92 143 122 74 61 120 123 137 184 11 39 -7 408 -41 841 -22 277 -32
345 -50 345 -37 0 -43 -24 -36 -158 28 -575 29 -641 11 -668 -37 -57 -127 -70
-177 -25 -31 28 -32 31 -35 122 -17 551 -25 704 -35 716 -13 16 -34 17 -44 2z"/>
</g>
</svg>
